<svg aria-hidden="true" style="position:absolute;width:0;height:0;overflow:hidden" xmlns="http://www.w3.org/2000/svg">
  <defs>
    <symbol id="icon-logo-bookshelf" viewBox="0 0 125 32">
      <path fill="#f6f6f6" style="fill:var(--color1, #f6f6f6)" d="m0 2.291 14.009 13.863L27.43 29.722V2.292H0z"/>
      <path fill="#f6f6f6" style="fill:var(--color1, #f6f6f6)" d="m3.821 5.915 10.237 10.14 9.65 9.845H3.821V5.915z"/>
      <path fill="#4f2ee8" style="fill:var(--color2, #4f2ee8)" d="m23.773 25.965-10.238-10.14L3.886 5.98h19.887v19.985z"/>
      <path fill="#4f2ee8" style="fill:var(--color2, #4f2ee8)" d="m7.934 10.03 11.658 11.659H7.934V10.031z"/>
      <path fill="#f6f6f6" style="fill:var(--color1, #f6f6f6)" d="m7.934 10.03 11.658 11.659V10.031H7.934z"/>
      <path  d="M47.662 12.272c0-2.366-1.749-3.703-4.773-3.703h-6.316v14.709h6.666c3.045 0 4.999-1.461 4.999-4.3 0-2.201-1.317-3.333-2.86-3.6v-.041c1.214-.411 2.284-1.255 2.284-3.065zm-8.64 2.387v-4.012h3.929c1.461 0 2.263.72 2.263 2.016s-.658 1.996-2.407 1.996h-3.785zm0 1.83h4.3c1.543 0 2.469.843 2.469 2.345 0 1.378-.638 2.366-2.736 2.366h-4.032v-4.711zm15.498 7.098c-3.292 0-5.287-2.284-5.287-5.555s1.996-5.555 5.287-5.555c3.292 0 5.287 2.284 5.287 5.555s-1.996 5.555-5.287 5.555zm0-1.769c2.057 0 3.127-1.625 3.127-3.785 0-2.181-1.07-3.785-3.127-3.785s-3.127 1.605-3.127 3.785c0 2.16 1.07 3.785 3.127 3.785zm11.511 1.769c-3.292 0-5.287-2.284-5.287-5.555s1.996-5.555 5.287-5.555c3.292 0 5.287 2.284 5.287 5.555s-1.996 5.555-5.287 5.555zm0-1.769c2.057 0 3.127-1.625 3.127-3.785 0-2.181-1.07-3.785-3.127-3.785s-3.127 1.605-3.127 3.785c0 2.16 1.07 3.785 3.127 3.785zm6.78-13.249v14.709h2.16v-3.806l1.461-1.378 3.312 5.184h2.592l-4.423-6.604 3.991-3.909H79.25l-4.279 4.217V8.568h-2.16zm14.732 8.352c-1.522-.35-2.695-.432-2.695-1.502 0-.741.699-1.234 1.996-1.234 1.687 0 2.098.843 2.242 1.666h2.098c-.144-1.831-1.502-3.374-4.361-3.374-2.633 0-4.156 1.378-4.156 3.106 0 2.386 2.263 2.716 3.929 3.106 1.543.37 2.798.473 2.798 1.79 0 .658-.638 1.399-2.14 1.399-2.222 0-2.716-.967-2.818-2.098h-2.098c.103 2.222 1.564 3.806 4.958 3.806 2.551 0 4.279-1.255 4.279-3.271 0-2.51-2.098-2.942-4.032-3.394zm11.096-4.443c-1.769 0-2.86.823-3.415 1.646h-.041V8.569h-2.16v14.709h2.16V16.88c0-1.564 1.132-2.572 2.716-2.572 1.502 0 2.098.905 2.098 2.325v6.645h2.181v-7.262c0-2.407-1.543-3.538-3.538-3.538zm10.163 9.34c-1.913 0-3.045-1.461-3.045-3.23h8.064c0-3.744-1.666-6.11-5.061-6.11-3.168 0-5.164 2.14-5.164 5.555 0 3.292 1.996 5.555 5.267 5.555 2.695 0 4.259-1.522 4.793-3.518h-2.16c-.185.638-.905 1.749-2.695 1.749zm-.042-7.633c1.749 0 2.901 1.173 2.901 2.798h-5.904c0-1.625 1.255-2.798 3.004-2.798zm6.584-5.616v14.709h2.181V8.569h-2.181zm9.236 1.769V8.569a7.32 7.32 0 0 0-1.438-.144h-.002c-1.728 0-2.674.782-2.674 3.004v1.337h-1.502v1.769h1.502v8.743h2.181v-8.743h1.934v-1.769h-1.934v-1.152c0-1.193.535-1.337 1.934-1.275z"/>
    </symbol>
    <symbol id="icon-x-close" viewBox="0 0 32 32">
      <path stroke-linejoin="round" stroke-linecap="round" stroke-width="3.429" d="M24.009 8.003 8.003 24.009m0-16.006 16.006 16.006"/>
    </symbol>
    <symbol id="icon-uil_cart" viewBox="0 0 32 32">
      <path  d="M25.35 9.339h-4.003V8.005a5.337 5.337 0 0 0-10.674 0v1.334H6.67c-.737 0-1.334.597-1.334 1.334v14.678a4.003 4.003 0 0 0 4.003 4.003h13.342a4.003 4.003 0 0 0 4.003-4.003V10.675c0-.737-.597-1.334-1.334-1.335zM13.342 8.005l-.001-.065a2.67 2.67 0 0 1 5.338 0l-.001.069v-.003V9.34h-5.336V8.006zM24.016 25.35v.002c0 .737-.597 1.334-1.334 1.334H9.338a1.334 1.334 0 0 1-1.334-1.334V12.008h2.667v1.334a1.335 1.335 0 1 0 2.67 0v-1.334h5.336v1.334a1.335 1.335 0 1 0 2.668 0v-1.334h2.669V25.35z"/>
    </symbol>
    <symbol id="icon-arrow-narrow-right" viewBox="0 0 32 32">
      <path fill="none" stroke="#eac645" style="stroke:var(--color5, #eac645)" stroke-linejoin="round" stroke-linecap="round" stroke-width="3.2" d="M5.336 16.011h21.347m.001 0-8.005-8.005m8.005 8.005-8.005 8.005"/>
    </symbol>
    <symbol id="icon-align-left" viewBox="0 0 32 32">
      <path stroke-linejoin="round" stroke-linecap="round" stroke-width="2.286" d="M22.675 13.339H4.002m24.009-5.336H4.002m24.009 10.67H4.002m18.673 5.336H4.002"/>
    </symbol>
    <symbol id="icon-fi-ss-caret-down" viewBox="0 0 28 32">
<path fill="#fff" style="fill: var(--color1, #fff)" d="M5.902 12h16.512l-7.422 8.39c-0.203 0.237-0.501 0.387-0.834 0.391h-0.001c-0.334-0.004-0.632-0.155-0.833-0.39l-0.001-0.002-7.422-8.39z"></path>
</symbol>

<symbol id="icon-arrowDown" viewBox="0 0 32 32">
<path fill="#4f2ee8" style="fill: var(--color1, #4f2ee8)" d="M15.053 17.867c0.124 0.125 0.271 0.224 0.434 0.292s0.337 0.103 0.513 0.103c0.176 0 0.35-0.035 0.513-0.103s0.31-0.167 0.434-0.292l6.107-6.12c0.124-0.125 0.271-0.224 0.434-0.292s0.337-0.103 0.513-0.103c0.176 0 0.35 0.035 0.513 0.103s0.31 0.167 0.434 0.292c0.248 0.25 0.388 0.588 0.388 0.94s-0.139 0.69-0.388 0.94l-6.12 6.12c-0.75 0.749-1.767 1.17-2.827 1.17s-2.077-0.421-2.827-1.17l-6.12-6.12c-0.246-0.248-0.385-0.584-0.387-0.933-0.001-0.175 0.033-0.349 0.099-0.512s0.164-0.31 0.288-0.435c0.124-0.125 0.271-0.224 0.434-0.292s0.337-0.103 0.513-0.103c0.176 0 0.35 0.035 0.513 0.103s0.31 0.167 0.434 0.292l6.107 6.12z"></path>
</symbol>
<symbol id="icon-Vector" viewBox="0 0 20 32">
<path fill="#fff" style="fill: var(--color1, #fff)" d="M9.005 30.888c-1.738-1.262-2.991-3.156-3.414-5.351h-5.591v-23.117c2.991 1.443 5.153 4.599 5.388 7.876l0.846 6.493-0.407-0.045c-0.893 0-1.676 0.812-1.676 1.608 0 0.752 0.595 1.383 1.378 1.548l1.018 0.226c1.676-3.051 2.631-6.042 2.631-8.973 0-2.645-0.36-5.291-0.423-7.996 0-1.202 0.486-2.3 1.253-3.156 0.783 0.857 1.253 1.954 1.253 3.156 0 2.705-0.423 5.351-0.423 7.996 0 2.931 0.955 5.922 2.631 8.973l1.018-0.226c0.783-0.165 1.378-0.812 1.378-1.548 0-0.812-0.783-1.608-1.676-1.608l-0.423 0.060 0.846-6.493c0.423-3.277 2.396-6.448 5.388-7.876v23.117h-5.576c-0.423 2.179-1.613 4.148-3.414 5.351-0.423 0.286-0.783 0.631-1.018 1.097-0.219-0.466-0.579-0.812-0.987-1.112zM2.647 17.556c0.235-0.857 0.893-1.608 1.738-2.074l-0.658-5.351c-0.235-1.668-0.955-3.156-2.036-4.374v11.784h0.955v0.015zM5.466 23.929c0-0.812 0.125-1.548 0.298-2.3l-0.783-0.18c-1.143-0.346-2.036-1.203-2.334-2.3h-0.955v4.78h3.774zM9.178 23.929c0-0.977-0.783-1.834-1.801-1.954-0.172 0.631-0.298 1.263-0.298 1.954h2.099zM9.178 25.552h-1.864c0.298 1.263 0.955 2.42 1.864 3.397v-3.397zM11.809 20.547c-0.72-1.262-1.378-2.585-1.801-3.968-0.423 1.383-1.081 2.706-1.801 3.968 0.72 0.165 1.316 0.631 1.801 1.157 0.486-0.526 1.081-0.992 1.801-1.157zM12.952 23.929c0-0.691-0.125-1.323-0.297-1.954-1.018 0.12-1.801 0.977-1.801 1.954h2.099zM12.717 25.552h-1.864v3.397c0.908-0.992 1.566-2.134 1.864-3.397zM18.34 23.929v-4.78h-0.955c-0.298 1.097-1.206 1.954-2.334 2.3l-0.783 0.18c0.172 0.752 0.298 1.488 0.298 2.3h3.774zM18.34 17.556v-11.799c-1.081 1.202-1.864 2.706-2.036 4.374l-0.658 5.351c0.846 0.466 1.504 1.203 1.739 2.074h0.955z"></path>
</symbol>

<symbol id="apple-books" viewBox="0 0 32 32">
<path fill="#000" style="fill: var(--color1, #000)" opacity="0.38039" d="M8.722 28h14.556c2.608 0 4.722-2.114 4.722-4.722v-14.556c0-2.608-2.114-4.722-4.722-4.722h-14.556c-2.608 0-4.722 2.114-4.722 4.722v14.556c0 2.608 2.114 4.722 4.722 4.722z"></path>
<path fill="#fff" style="fill: var(--color2, #fff)" d="M15.333 22.667c-1.565-2.903-5.333-3.333-8-0.667v-10.667c2.667-2.667 6-2 8 0z"></path>
<path fill="#fff" style="fill: var(--color2, #fff)" d="M16.667 22.667c1.565-2.903 5.333-3.333 8-0.667v-10.667c-2.667-2.667-6-2-8 0z"></path>
</symbol>
<symbol id="amazon" viewBox="0 0 106 32">
<path d="M22.783 7.544v10.274c0 0.347-0.281 0.628-0.628 0.628v0h-3.243c-0.347-0-0.628-0.281-0.628-0.628v-16.711c0-0.347 0.281-0.628 0.628-0.628v0h3.001c0.347 0 0.628 0.281 0.628 0.628v0 2.353s1.073-3.357 4.257-3.357c0 0 3.149-0.381 4.43 3.115 0 0 1.073-3.115 4.326-3.115 0 0 4.838-0.288 4.838 4.718l0.037 2.757v10.274c0 0.347-0.281 0.628-0.628 0.628h-3.243c-0.347-0-0.628-0.281-0.628-0.628v-0l-0.030-11.208c0.092-2.538-1.961-2.353-1.961-2.353-2.584 0.046-2.335 3.288-2.335 3.288v10.274c0 0.347-0.281 0.628-0.628 0.628v0h-3.243c-0.347-0-0.628-0.281-0.628-0.628v-10.955s0.19-2.63-2.118-2.63c0 0-2.284-0.3-2.203 3.276zM106.383 7.513v10.273c-0 0.347-0.281 0.628-0.628 0.628h-0l-3.373 0.065c-0.347-0-0.628-0.281-0.628-0.628v-10.954s0.19-2.63-2.117-2.63c0 0-2.204-0.109-2.204 4.015v9.535c-0 0.347-0.281 0.628-0.628 0.628h-3.243c-0.347-0-0.628-0.281-0.628-0.628v-16.711c0-0.347 0.281-0.628 0.628-0.628h3.001c0.347 0 0.628 0.281 0.628 0.628v0 2.353s1.073-3.357 4.257-3.357c0 0 3.411-0.517 4.559 3.050 0-0 0.376 0.736 0.376 4.36zM82.966 0.034c-4.147 0-7.51 3.495-7.51 9.379 0 5.18 2.596 9.379 7.51 9.379 4.637 0 7.51-4.199 7.51-9.379 0-5.779-3.362-9.379-7.51-9.379zM85.584 9.621c0 2.215-0.277 3.392-0.277 3.392-0.394 2.341-2.094 2.345-2.344 2.332-0.27 0.011-1.985-0.014-2.339-2.332 0 0-0.277-1.177-0.277-3.392v-0.369c0-2.215 0.277-3.392 0.277-3.392 0.355-2.319 2.069-2.343 2.339-2.333 0.251-0.012 1.95-0.009 2.344 2.333 0 0 0.277 1.177 0.277 3.392zM73.574 3.437v-2.398c-0-0.347-0.281-0.628-0.628-0.628h-10.72c-0.347 0-0.628 0.281-0.628 0.628v0 2.379c0 0.347 0.281 0.628 0.628 0.628h5.592l-6.619 9.602s-0.261 0.389-0.252 0.819v2.921s-0.043 1.001 1.093 0.42c0 0 2.017-1.219 5.4-1.219 0 0 3.34-0.042 5.567 1.324 0 0 0.924 0.42 0.924-0.504v-2.542s0.084-0.673-0.798-1.093c0 0-2.563-1.408-5.925-1.177zM15.781 15.457l-1.015-1.545c-0.323-0.577-0.3-1.223-0.3-1.223v-7.129c0.138-6.16-6.691-5.629-6.691-5.629-6.071 0-6.968 4.725-6.968 4.725-0.253 0.95 0.483 0.973 0.483 0.973l2.967 0.301s0.506 0.116 0.69-0.486c0 0 0.391-2.061 2.575-2.061 2.377 0 2.353 2.040 2.353 2.040v1.708c-4.745 0.159-6.945 1.476-6.945 1.476-2.93 1.661-2.746 4.961-2.746 4.961 0 5.376 5.122 5.145 5.122 5.145 3.276 0 5.214-2.399 5.214-2.399 0.577 1.016 1.638 1.984 1.638 1.984 0.531 0.576 1.084 0.092 1.084 0.092l2.4-2.053c0.53-0.393 0.138-0.877 0.138-0.877zM6.905 15.391c-1.541 0-2.114-1.531-1.858-3.036s1.586-2.688 4.828-2.653v0.915c0.115 3.997-1.687 4.774-2.97 4.774zM58.879 15.457l-1.015-1.545c-0.323-0.577-0.3-1.223-0.3-1.223v-7.129c0.138-6.16-6.691-5.629-6.691-5.629-6.071 0-6.968 4.725-6.968 4.725-0.253 0.95 0.483 0.973 0.483 0.973l2.967 0.301s0.506 0.116 0.69-0.486c0 0 0.391-2.061 2.575-2.061 2.377 0 2.352 2.040 2.352 2.040v1.708c-4.745 0.159-6.945 1.476-6.945 1.476-2.93 1.661-2.746 4.961-2.746 4.961 0 5.376 5.122 5.145 5.122 5.145 3.276 0 5.214-2.399 5.214-2.399 0.577 1.016 1.638 1.984 1.638 1.984 0.531 0.576 1.085 0.092 1.085 0.092l2.399-2.053c0.531-0.393 0.139-0.877 0.139-0.877zM50.003 15.391c-1.541 0-2.114-1.531-1.858-3.036s1.586-2.688 4.827-2.653v0.915c0.115 3.997-1.686 4.774-2.969 4.774z"></path>
<path d="M67.045 28.951s-0.271 0.472 0.062 0.578c0 0 0.377 0.147 0.846-0.289 0 0 3.424-2.991 3.507-8.438 0 0 0.025-0.68-0.248-0.866 0 0-1.073-0.949-4.931-0.66 0 0-3.363 0.227-5.199 1.857 0 0-0.165 0.144-0.165 0.33 0 0-0.040 0.401 0.97 0.227 0 0 3.363-0.475 5.364-0.227 0 0 1.032 0.124 1.321 0.475 0 0 0.475 0.392 0.227 1.691 0 0.001-0.681 3.301-1.754 5.323z"></path>
<path d="M66.367 23.726s0.502 0.651-0.308 1.212c0 0-8.657 6.924-23.192 6.924 0 0-14.962 0.738-27.456-10.613 0 0-0.438-0.385-0.166-0.742 0 0 0.243-0.329 0.872 0.029 0 0 11.753 7.323 27.188 7.323 0 0 10.728 0.415 21.734-4.291 0 0 0.877-0.454 1.328 0.158z"></path>
</symbol>

<symbol id="icon-amazz" viewBox="0 0 32 32">
<path d="M19.788 18.669c-1.837 1.355-4.5 2.076-6.792 2.076-3.214 0-6.108-1.188-8.298-3.165-0.172-0.155-0.019-0.367 0.188-0.247 2.362 1.375 5.285 2.203 8.302 2.203 2.036 0 4.274-0.423 6.333-1.296 0.311-0.131 0.571 0.205 0.267 0.43z"></path>
<path d="M20.552 17.796c-0.235-0.301-1.553-0.143-2.145-0.072-0.18 0.022-0.207-0.135-0.046-0.249 1.051-0.739 2.774-0.525 2.974-0.278 0.202 0.249-0.053 1.976-1.038 2.801-0.152 0.127-0.296 0.059-0.229-0.108 0.222-0.554 0.719-1.793 0.483-2.095z"></path>
<path d="M18.449 12.259v-0.718c0.001-0.109 0.083-0.182 0.182-0.182l3.216-0c0.103 0 0.185 0.074 0.185 0.181v0.615c-0.001 0.103-0.088 0.238-0.242 0.452l-1.666 2.379c0.618-0.014 1.273 0.078 1.835 0.394 0.127 0.071 0.161 0.177 0.171 0.28v0.766c0 0.106-0.116 0.228-0.237 0.164-0.99-0.519-2.303-0.575-3.398 0.006-0.112 0.060-0.229-0.061-0.229-0.166v-0.728c0-0.116 0.002-0.316 0.12-0.493l1.93-2.769-1.68-0c-0.103 0-0.185-0.073-0.186-0.181z"></path>
<path d="M6.718 16.741h-0.979c-0.093-0.006-0.168-0.076-0.175-0.165l0.001-5.022c0-0.1 0.084-0.181 0.189-0.181l0.911-0c0.095 0.005 0.172 0.077 0.178 0.169v0.655h0.019c0.237-0.634 0.685-0.93 1.288-0.93 0.612 0 0.996 0.296 1.27 0.93 0.237-0.634 0.776-0.93 1.352-0.93 0.411 0 0.858 0.169 1.132 0.55 0.31 0.423 0.247 1.036 0.247 1.575l-0.001 3.169c0 0.1-0.084 0.181-0.189 0.181h-0.977c-0.099-0.006-0.176-0.084-0.176-0.18l-0-2.662c0-0.211 0.018-0.739-0.028-0.94-0.073-0.339-0.292-0.434-0.575-0.434-0.238 0-0.484 0.158-0.585 0.412s-0.091 0.677-0.091 0.962v2.662c0 0.1-0.084 0.181-0.189 0.181h-0.977c-0.098-0.006-0.176-0.084-0.176-0.18l-0.001-2.662c0-0.56 0.092-1.384-0.602-1.384-0.703 0-0.676 0.803-0.676 1.384l-0.001 2.662c0 0.1-0.084 0.181-0.189 0.181z"></path>
<path d="M24.81 12.292c-0.721 0-0.767 0.982-0.767 1.595s-0.009 1.923 0.758 1.923c0.758 0 0.795-1.057 0.795-1.701 0-0.423-0.019-0.93-0.146-1.332-0.11-0.349-0.329-0.486-0.639-0.486zM24.801 11.267c1.452 0 2.237 1.247 2.237 2.832 0 1.532-0.868 2.747-2.237 2.747-1.425 0-2.201-1.247-2.201-2.8 0-1.564 0.785-2.779 2.201-2.779z"></path>
<path d="M28.922 16.741h-0.975c-0.098-0.006-0.175-0.084-0.175-0.18l-0.002-5.024c0.008-0.092 0.090-0.164 0.188-0.164l0.908-0c0.086 0.005 0.156 0.063 0.174 0.14v0.768h0.018c0.274-0.687 0.658-1.014 1.333-1.014 0.438 0 0.868 0.158 1.142 0.592 0.256 0.402 0.256 1.078 0.256 1.564v3.16c-0.011 0.089-0.091 0.158-0.188 0.158h-0.981c-0.091-0.006-0.164-0.072-0.174-0.158v-2.726c0-0.55 0.064-1.353-0.612-1.353-0.237 0-0.457 0.158-0.566 0.401-0.137 0.307-0.155 0.613-0.155 0.952v2.704c-0.002 0.1-0.086 0.18-0.191 0.18z"></path>
<path d="M4.801 15.82c-0.179-0.247-0.37-0.448-0.37-0.907v-1.524c0-0.646 0.046-1.239-0.43-1.684-0.367-0.352-0.969-0.481-1.44-0.487h-0.072c-0.921 0.009-1.934 0.363-2.149 1.498-0.023 0.122 0.066 0.187 0.146 0.205l0.948 0.103c0.089-0.005 0.153-0.092 0.17-0.18 0.081-0.396 0.413-0.587 0.786-0.587 0.201 0 0.43 0.074 0.549 0.254 0.137 0.201 0.119 0.476 0.119 0.71v0.127c-0.567 0.063-1.308 0.105-1.839 0.339-0.614 0.264-1.044 0.805-1.044 1.599 0 1.017 0.641 1.525 1.464 1.525 0.696 0 1.076-0.164 1.613-0.711 0.177 0.257 0.236 0.382 0.561 0.652 0.073 0.039 0.167 0.035 0.231-0.023l0.002 0.002c0.195-0.174 0.55-0.482 0.75-0.65 0.080-0.065 0.065-0.171 0.003-0.26zM2.876 15.381c-0.155 0.275-0.403 0.445-0.678 0.445-0.375 0-0.595-0.286-0.595-0.71 0-0.834 0.747-0.985 1.455-0.985v0.212c0 0.381 0.009 0.699-0.183 1.038z"></path>
<path d="M17.627 15.82c-0.179-0.247-0.369-0.448-0.369-0.907v-1.524c0-0.646 0.046-1.239-0.43-1.684-0.367-0.352-0.969-0.481-1.44-0.487h-0.073c-0.921 0.009-1.934 0.363-2.149 1.498-0.023 0.122 0.066 0.187 0.146 0.205l0.949 0.103c0.088-0.005 0.152-0.092 0.17-0.18 0.082-0.396 0.413-0.587 0.786-0.587 0.201 0 0.43 0.074 0.549 0.254 0.137 0.201 0.119 0.476 0.119 0.71v0.127c-0.568 0.064-1.309 0.106-1.84 0.339-0.613 0.265-1.044 0.805-1.044 1.599 0 1.017 0.641 1.525 1.464 1.525 0.696 0 1.076-0.164 1.613-0.711 0.178 0.257 0.236 0.382 0.561 0.652 0.073 0.039 0.166 0.035 0.231-0.023l0.003 0.002c0.195-0.174 0.55-0.482 0.75-0.65 0.080-0.066 0.066-0.171 0.003-0.261zM15.702 15.381c-0.156 0.275-0.403 0.445-0.678 0.445-0.375 0-0.595-0.286-0.595-0.71 0-0.834 0.747-0.985 1.455-0.985v0.212c0 0.381 0.009 0.699-0.183 1.038z"></path>
<symbol id="icon-trash-031" viewBox="0 0 32 32">
<path fill="none" stroke="#fff" style="stroke: var(--color1, #fff)" stroke-linejoin="round" stroke-linecap="butt" stroke-miterlimit="4" stroke-width="2.6667" d="M12 4h8M4 8h24M25.333 8l-0.935 14.026c-0.141 2.104-0.211 3.156-0.665 3.954-0.4 0.702-1.004 1.267-1.731 1.62-0.826 0.4-1.881 0.4-3.991 0.4h-4.024c-2.109 0-3.164 0-3.99-0.4-0.727-0.353-1.331-0.917-1.731-1.62-0.454-0.798-0.524-1.85-0.665-3.954l-0.935-14.026M13.333 14v6.667M18.667 14v6.667"></path>
</symbol>
</symbol>

<symbol id="icon-scroll-up" viewBox="0 0 55 32">
<path fill="#fff" style="fill: var(--color1, #fff)" d="M1.091 25.309l24.436-24.509c0.291-0.291 0.606-0.496 0.945-0.617 0.339-0.122 0.703-0.183 1.091-0.183s0.752 0.061 1.091 0.183c0.339 0.12 0.655 0.326 0.946 0.617l24.509 24.509c0.679 0.679 1.018 1.527 1.018 2.545s-0.364 1.891-1.091 2.618c-0.727 0.727-1.576 1.091-2.545 1.091s-1.818-0.364-2.545-1.091l-21.382-21.382-21.382 21.382c-0.679 0.679-1.515 1.018-2.508 1.018-0.995 0-1.856-0.364-2.583-1.091s-1.091-1.576-1.091-2.545c0-0.97 0.364-1.818 1.091-2.545z"></path>
</symbol>

  </defs>
</svg>
