<svg aria-hidden="true" style="position:absolute;width:0;height:0;overflow:hidden" xmlns="http://www.w3.org/2000/svg">
  <defs>
    <symbol id="icon-logo-bookshelf" viewBox="0 0 125 32">
      <path fill="#f6f6f6" style="fill:var(--color1, #f6f6f6)" d="m0 2.291 14.009 13.863L27.43 29.722V2.292H0z"/>
      <path fill="#f6f6f6" style="fill:var(--color1, #f6f6f6)" d="m3.821 5.915 10.237 10.14 9.65 9.845H3.821V5.915z"/>
      <path fill="#4f2ee8" style="fill:var(--color2, #4f2ee8)" d="m23.773 25.965-10.238-10.14L3.886 5.98h19.887v19.985z"/>
      <path fill="#4f2ee8" style="fill:var(--color2, #4f2ee8)" d="m7.934 10.03 11.658 11.659H7.934V10.031z"/>
      <path fill="#f6f6f6" style="fill:var(--color1, #f6f6f6)" d="m7.934 10.03 11.658 11.659V10.031H7.934z"/>
      <path  d="M47.662 12.272c0-2.366-1.749-3.703-4.773-3.703h-6.316v14.709h6.666c3.045 0 4.999-1.461 4.999-4.3 0-2.201-1.317-3.333-2.86-3.6v-.041c1.214-.411 2.284-1.255 2.284-3.065zm-8.64 2.387v-4.012h3.929c1.461 0 2.263.72 2.263 2.016s-.658 1.996-2.407 1.996h-3.785zm0 1.83h4.3c1.543 0 2.469.843 2.469 2.345 0 1.378-.638 2.366-2.736 2.366h-4.032v-4.711zm15.498 7.098c-3.292 0-5.287-2.284-5.287-5.555s1.996-5.555 5.287-5.555c3.292 0 5.287 2.284 5.287 5.555s-1.996 5.555-5.287 5.555zm0-1.769c2.057 0 3.127-1.625 3.127-3.785 0-2.181-1.07-3.785-3.127-3.785s-3.127 1.605-3.127 3.785c0 2.16 1.07 3.785 3.127 3.785zm11.511 1.769c-3.292 0-5.287-2.284-5.287-5.555s1.996-5.555 5.287-5.555c3.292 0 5.287 2.284 5.287 5.555s-1.996 5.555-5.287 5.555zm0-1.769c2.057 0 3.127-1.625 3.127-3.785 0-2.181-1.07-3.785-3.127-3.785s-3.127 1.605-3.127 3.785c0 2.16 1.07 3.785 3.127 3.785zm6.78-13.249v14.709h2.16v-3.806l1.461-1.378 3.312 5.184h2.592l-4.423-6.604 3.991-3.909H79.25l-4.279 4.217V8.568h-2.16zm14.732 8.352c-1.522-.35-2.695-.432-2.695-1.502 0-.741.699-1.234 1.996-1.234 1.687 0 2.098.843 2.242 1.666h2.098c-.144-1.831-1.502-3.374-4.361-3.374-2.633 0-4.156 1.378-4.156 3.106 0 2.386 2.263 2.716 3.929 3.106 1.543.37 2.798.473 2.798 1.79 0 .658-.638 1.399-2.14 1.399-2.222 0-2.716-.967-2.818-2.098h-2.098c.103 2.222 1.564 3.806 4.958 3.806 2.551 0 4.279-1.255 4.279-3.271 0-2.51-2.098-2.942-4.032-3.394zm11.096-4.443c-1.769 0-2.86.823-3.415 1.646h-.041V8.569h-2.16v14.709h2.16V16.88c0-1.564 1.132-2.572 2.716-2.572 1.502 0 2.098.905 2.098 2.325v6.645h2.181v-7.262c0-2.407-1.543-3.538-3.538-3.538zm10.163 9.34c-1.913 0-3.045-1.461-3.045-3.23h8.064c0-3.744-1.666-6.11-5.061-6.11-3.168 0-5.164 2.14-5.164 5.555 0 3.292 1.996 5.555 5.267 5.555 2.695 0 4.259-1.522 4.793-3.518h-2.16c-.185.638-.905 1.749-2.695 1.749zm-.042-7.633c1.749 0 2.901 1.173 2.901 2.798h-5.904c0-1.625 1.255-2.798 3.004-2.798zm6.584-5.616v14.709h2.181V8.569h-2.181zm9.236 1.769V8.569a7.32 7.32 0 0 0-1.438-.144h-.002c-1.728 0-2.674.782-2.674 3.004v1.337h-1.502v1.769h1.502v8.743h2.181v-8.743h1.934v-1.769h-1.934v-1.152c0-1.193.535-1.337 1.934-1.275z"/>
    </symbol>
    <symbol id="icon-x-close" viewBox="0 0 32 32">
      <path stroke-linejoin="round" stroke-linecap="round" stroke-width="3.429" d="M24.009 8.003 8.003 24.009m0-16.006 16.006 16.006"/>
    </symbol>
    <symbol id="icon-uil_cart" viewBox="0 0 32 32">
      <path  d="M25.35 9.339h-4.003V8.005a5.337 5.337 0 0 0-10.674 0v1.334H6.67c-.737 0-1.334.597-1.334 1.334v14.678a4.003 4.003 0 0 0 4.003 4.003h13.342a4.003 4.003 0 0 0 4.003-4.003V10.675c0-.737-.597-1.334-1.334-1.335zM13.342 8.005l-.001-.065a2.67 2.67 0 0 1 5.338 0l-.001.069v-.003V9.34h-5.336V8.006zM24.016 25.35v.002c0 .737-.597 1.334-1.334 1.334H9.338a1.334 1.334 0 0 1-1.334-1.334V12.008h2.667v1.334a1.335 1.335 0 1 0 2.67 0v-1.334h5.336v1.334a1.335 1.335 0 1 0 2.668 0v-1.334h2.669V25.35z"/>
    </symbol>
    <symbol id="icon-arrow-narrow-right" viewBox="0 0 32 32">
      <path fill="none" stroke="#eac645" style="stroke:var(--color5, #eac645)" stroke-linejoin="round" stroke-linecap="round" stroke-width="3.2" d="M5.336 16.011h21.347m.001 0-8.005-8.005m8.005 8.005-8.005 8.005"/>
    </symbol>
    <symbol id="icon-align-left" viewBox="0 0 32 32">
      <path stroke-linejoin="round" stroke-linecap="round" stroke-width="2.286" d="M22.675 13.339H4.002m24.009-5.336H4.002m24.009 10.67H4.002m18.673 5.336H4.002"/>
    </symbol>
    <symbol id="icon-fi-ss-caret-down" viewBox="0 0 28 32">
<path fill="#fff" style="fill: var(--color1, #fff)" d="M5.902 12h16.512l-7.422 8.39c-0.203 0.237-0.501 0.387-0.834 0.391h-0.001c-0.334-0.004-0.632-0.155-0.833-0.39l-0.001-0.002-7.422-8.39z"></path>
</symbol>
  </defs>
</svg>
