<svg aria-hidden="true" style="position:absolute;width:0;height:0;overflow:hidden" xmlns="http://www.w3.org/2000/svg">
  <defs>
    <symbol id="icon-logo-bookshelf" viewBox="0 0 125 32">
      <path fill="#f6f6f6" style="fill:var(--color1, #f6f6f6)" d="m0 2.291 14.009 13.863L27.43 29.722V2.292H0z"/>
      <path fill="#f6f6f6" style="fill:var(--color1, #f6f6f6)" d="m3.821 5.915 10.237 10.14 9.65 9.845H3.821V5.915z"/>
      <path fill="#4f2ee8" style="fill:var(--color2, #4f2ee8)" d="m23.773 25.965-10.238-10.14L3.886 5.98h19.887v19.985z"/>
      <path fill="#4f2ee8" style="fill:var(--color2, #4f2ee8)" d="m7.934 10.03 11.658 11.659H7.934V10.031z"/>
      <path fill="#f6f6f6" style="fill:var(--color1, #f6f6f6)" d="m7.934 10.03 11.658 11.659V10.031H7.934z"/>
      <path  d="M47.662 12.272c0-2.366-1.749-3.703-4.773-3.703h-6.316v14.709h6.666c3.045 0 4.999-1.461 4.999-4.3 0-2.201-1.317-3.333-2.86-3.6v-.041c1.214-.411 2.284-1.255 2.284-3.065zm-8.64 2.387v-4.012h3.929c1.461 0 2.263.72 2.263 2.016s-.658 1.996-2.407 1.996h-3.785zm0 1.83h4.3c1.543 0 2.469.843 2.469 2.345 0 1.378-.638 2.366-2.736 2.366h-4.032v-4.711zm15.498 7.098c-3.292 0-5.287-2.284-5.287-5.555s1.996-5.555 5.287-5.555c3.292 0 5.287 2.284 5.287 5.555s-1.996 5.555-5.287 5.555zm0-1.769c2.057 0 3.127-1.625 3.127-3.785 0-2.181-1.07-3.785-3.127-3.785s-3.127 1.605-3.127 3.785c0 2.16 1.07 3.785 3.127 3.785zm11.511 1.769c-3.292 0-5.287-2.284-5.287-5.555s1.996-5.555 5.287-5.555c3.292 0 5.287 2.284 5.287 5.555s-1.996 5.555-5.287 5.555zm0-1.769c2.057 0 3.127-1.625 3.127-3.785 0-2.181-1.07-3.785-3.127-3.785s-3.127 1.605-3.127 3.785c0 2.16 1.07 3.785 3.127 3.785zm6.78-13.249v14.709h2.16v-3.806l1.461-1.378 3.312 5.184h2.592l-4.423-6.604 3.991-3.909H79.25l-4.279 4.217V8.568h-2.16zm14.732 8.352c-1.522-.35-2.695-.432-2.695-1.502 0-.741.699-1.234 1.996-1.234 1.687 0 2.098.843 2.242 1.666h2.098c-.144-1.831-1.502-3.374-4.361-3.374-2.633 0-4.156 1.378-4.156 3.106 0 2.386 2.263 2.716 3.929 3.106 1.543.37 2.798.473 2.798 1.79 0 .658-.638 1.399-2.14 1.399-2.222 0-2.716-.967-2.818-2.098h-2.098c.103 2.222 1.564 3.806 4.958 3.806 2.551 0 4.279-1.255 4.279-3.271 0-2.51-2.098-2.942-4.032-3.394zm11.096-4.443c-1.769 0-2.86.823-3.415 1.646h-.041V8.569h-2.16v14.709h2.16V16.88c0-1.564 1.132-2.572 2.716-2.572 1.502 0 2.098.905 2.098 2.325v6.645h2.181v-7.262c0-2.407-1.543-3.538-3.538-3.538zm10.163 9.34c-1.913 0-3.045-1.461-3.045-3.23h8.064c0-3.744-1.666-6.11-5.061-6.11-3.168 0-5.164 2.14-5.164 5.555 0 3.292 1.996 5.555 5.267 5.555 2.695 0 4.259-1.522 4.793-3.518h-2.16c-.185.638-.905 1.749-2.695 1.749zm-.042-7.633c1.749 0 2.901 1.173 2.901 2.798h-5.904c0-1.625 1.255-2.798 3.004-2.798zm6.584-5.616v14.709h2.181V8.569h-2.181zm9.236 1.769V8.569a7.32 7.32 0 0 0-1.438-.144h-.002c-1.728 0-2.674.782-2.674 3.004v1.337h-1.502v1.769h1.502v8.743h2.181v-8.743h1.934v-1.769h-1.934v-1.152c0-1.193.535-1.337 1.934-1.275z"/>
    </symbol>
    <symbol id="icon-x-close" viewBox="0 0 32 32">
      <path stroke-linejoin="round" stroke-linecap="round" stroke-width="3.429" d="M24.009 8.003 8.003 24.009m0-16.006 16.006 16.006"/>
    </symbol>
    <symbol id="icon-uil_cart" viewBox="0 0 32 32">
      <path  d="M25.35 9.339h-4.003V8.005a5.337 5.337 0 0 0-10.674 0v1.334H6.67c-.737 0-1.334.597-1.334 1.334v14.678a4.003 4.003 0 0 0 4.003 4.003h13.342a4.003 4.003 0 0 0 4.003-4.003V10.675c0-.737-.597-1.334-1.334-1.335zM13.342 8.005l-.001-.065a2.67 2.67 0 0 1 5.338 0l-.001.069v-.003V9.34h-5.336V8.006zM24.016 25.35v.002c0 .737-.597 1.334-1.334 1.334H9.338a1.334 1.334 0 0 1-1.334-1.334V12.008h2.667v1.334a1.335 1.335 0 1 0 2.67 0v-1.334h5.336v1.334a1.335 1.335 0 1 0 2.668 0v-1.334h2.669V25.35z"/>
    </symbol>
    <symbol id="icon-arrow-narrow-right" viewBox="0 0 32 32">
      <path fill="none" stroke="#eac645" style="stroke:var(--color5, #eac645)" stroke-linejoin="round" stroke-linecap="round" stroke-width="3.2" d="M5.336 16.011h21.347m.001 0-8.005-8.005m8.005 8.005-8.005 8.005"/>
    </symbol>
    <symbol id="icon-align-left" viewBox="0 0 32 32">
      <path stroke-linejoin="round" stroke-linecap="round" stroke-width="2.286" d="M22.675 13.339H4.002m24.009-5.336H4.002m24.009 10.67H4.002m18.673 5.336H4.002"/>
    </symbol>
    <symbol id="icon-fi-ss-caret-down" viewBox="0 0 28 32">
<path fill="#fff" style="fill: var(--color1, #fff)" d="M5.902 12h16.512l-7.422 8.39c-0.203 0.237-0.501 0.387-0.834 0.391h-0.001c-0.334-0.004-0.632-0.155-0.833-0.39l-0.001-0.002-7.422-8.39z"></path>
</symbol>
<symbol id="apple-books" viewBox="0 0 32 32">
<path fill="#000" style="fill: var(--color1, #000)" opacity="0.38039" d="M8.722 28h14.556c2.608 0 4.722-2.114 4.722-4.722v-14.556c0-2.608-2.114-4.722-4.722-4.722h-14.556c-2.608 0-4.722 2.114-4.722 4.722v14.556c0 2.608 2.114 4.722 4.722 4.722z"></path>
<path fill="#fff" style="fill: var(--color2, #fff)" d="M15.333 22.667c-1.565-2.903-5.333-3.333-8-0.667v-10.667c2.667-2.667 6-2 8 0z"></path>
<path fill="#fff" style="fill: var(--color2, #fff)" d="M16.667 22.667c1.565-2.903 5.333-3.333 8-0.667v-10.667c-2.667-2.667-6-2-8 0z"></path>
</symbol>
<symbol id="amazon" viewBox="0 0 106 32">
<path d="M22.783 7.544v10.274c0 0.347-0.281 0.628-0.628 0.628v0h-3.243c-0.347-0-0.628-0.281-0.628-0.628v-16.711c0-0.347 0.281-0.628 0.628-0.628v0h3.001c0.347 0 0.628 0.281 0.628 0.628v0 2.353s1.073-3.357 4.257-3.357c0 0 3.149-0.381 4.43 3.115 0 0 1.073-3.115 4.326-3.115 0 0 4.838-0.288 4.838 4.718l0.037 2.757v10.274c0 0.347-0.281 0.628-0.628 0.628h-3.243c-0.347-0-0.628-0.281-0.628-0.628v-0l-0.030-11.208c0.092-2.538-1.961-2.353-1.961-2.353-2.584 0.046-2.335 3.288-2.335 3.288v10.274c0 0.347-0.281 0.628-0.628 0.628v0h-3.243c-0.347-0-0.628-0.281-0.628-0.628v-10.955s0.19-2.63-2.118-2.63c0 0-2.284-0.3-2.203 3.276zM106.383 7.513v10.273c-0 0.347-0.281 0.628-0.628 0.628h-0l-3.373 0.065c-0.347-0-0.628-0.281-0.628-0.628v-10.954s0.19-2.63-2.117-2.63c0 0-2.204-0.109-2.204 4.015v9.535c-0 0.347-0.281 0.628-0.628 0.628h-3.243c-0.347-0-0.628-0.281-0.628-0.628v-16.711c0-0.347 0.281-0.628 0.628-0.628h3.001c0.347 0 0.628 0.281 0.628 0.628v0 2.353s1.073-3.357 4.257-3.357c0 0 3.411-0.517 4.559 3.050 0-0 0.376 0.736 0.376 4.36zM82.966 0.034c-4.147 0-7.51 3.495-7.51 9.379 0 5.18 2.596 9.379 7.51 9.379 4.637 0 7.51-4.199 7.51-9.379 0-5.779-3.362-9.379-7.51-9.379zM85.584 9.621c0 2.215-0.277 3.392-0.277 3.392-0.394 2.341-2.094 2.345-2.344 2.332-0.27 0.011-1.985-0.014-2.339-2.332 0 0-0.277-1.177-0.277-3.392v-0.369c0-2.215 0.277-3.392 0.277-3.392 0.355-2.319 2.069-2.343 2.339-2.333 0.251-0.012 1.95-0.009 2.344 2.333 0 0 0.277 1.177 0.277 3.392zM73.574 3.437v-2.398c-0-0.347-0.281-0.628-0.628-0.628h-10.72c-0.347 0-0.628 0.281-0.628 0.628v0 2.379c0 0.347 0.281 0.628 0.628 0.628h5.592l-6.619 9.602s-0.261 0.389-0.252 0.819v2.921s-0.043 1.001 1.093 0.42c0 0 2.017-1.219 5.4-1.219 0 0 3.34-0.042 5.567 1.324 0 0 0.924 0.42 0.924-0.504v-2.542s0.084-0.673-0.798-1.093c0 0-2.563-1.408-5.925-1.177zM15.781 15.457l-1.015-1.545c-0.323-0.577-0.3-1.223-0.3-1.223v-7.129c0.138-6.16-6.691-5.629-6.691-5.629-6.071 0-6.968 4.725-6.968 4.725-0.253 0.95 0.483 0.973 0.483 0.973l2.967 0.301s0.506 0.116 0.69-0.486c0 0 0.391-2.061 2.575-2.061 2.377 0 2.353 2.040 2.353 2.040v1.708c-4.745 0.159-6.945 1.476-6.945 1.476-2.93 1.661-2.746 4.961-2.746 4.961 0 5.376 5.122 5.145 5.122 5.145 3.276 0 5.214-2.399 5.214-2.399 0.577 1.016 1.638 1.984 1.638 1.984 0.531 0.576 1.084 0.092 1.084 0.092l2.4-2.053c0.53-0.393 0.138-0.877 0.138-0.877zM6.905 15.391c-1.541 0-2.114-1.531-1.858-3.036s1.586-2.688 4.828-2.653v0.915c0.115 3.997-1.687 4.774-2.97 4.774zM58.879 15.457l-1.015-1.545c-0.323-0.577-0.3-1.223-0.3-1.223v-7.129c0.138-6.16-6.691-5.629-6.691-5.629-6.071 0-6.968 4.725-6.968 4.725-0.253 0.95 0.483 0.973 0.483 0.973l2.967 0.301s0.506 0.116 0.69-0.486c0 0 0.391-2.061 2.575-2.061 2.377 0 2.352 2.040 2.352 2.040v1.708c-4.745 0.159-6.945 1.476-6.945 1.476-2.93 1.661-2.746 4.961-2.746 4.961 0 5.376 5.122 5.145 5.122 5.145 3.276 0 5.214-2.399 5.214-2.399 0.577 1.016 1.638 1.984 1.638 1.984 0.531 0.576 1.085 0.092 1.085 0.092l2.399-2.053c0.531-0.393 0.139-0.877 0.139-0.877zM50.003 15.391c-1.541 0-2.114-1.531-1.858-3.036s1.586-2.688 4.827-2.653v0.915c0.115 3.997-1.686 4.774-2.969 4.774z"></path>
<path d="M67.045 28.951s-0.271 0.472 0.062 0.578c0 0 0.377 0.147 0.846-0.289 0 0 3.424-2.991 3.507-8.438 0 0 0.025-0.68-0.248-0.866 0 0-1.073-0.949-4.931-0.66 0 0-3.363 0.227-5.199 1.857 0 0-0.165 0.144-0.165 0.33 0 0-0.040 0.401 0.97 0.227 0 0 3.363-0.475 5.364-0.227 0 0 1.032 0.124 1.321 0.475 0 0 0.475 0.392 0.227 1.691 0 0.001-0.681 3.301-1.754 5.323z"></path>
<path d="M66.367 23.726s0.502 0.651-0.308 1.212c0 0-8.657 6.924-23.192 6.924 0 0-14.962 0.738-27.456-10.613 0 0-0.438-0.385-0.166-0.742 0 0 0.243-0.329 0.872 0.029 0 0 11.753 7.323 27.188 7.323 0 0 10.728 0.415 21.734-4.291 0 0 0.877-0.454 1.328 0.158z"></path>
</symbol>

  </defs>
</svg>
