<svg aria-hidden="true" style="position:absolute;width:0;height:0;overflow:hidden" xmlns="http://www.w3.org/2000/svg">
  <defs>
    <symbol id="icon-logo-bookshelf" viewBox="0 0 125 32">
      <path fill="#f6f6f6" style="fill:var(--color1, #f6f6f6)" d="m0 2.291 14.009 13.863L27.43 29.722V2.292H0z"/>
      <path fill="#f6f6f6" style="fill:var(--color1, #f6f6f6)" d="m3.821 5.915 10.237 10.14 9.65 9.845H3.821V5.915z"/>
      <path fill="#4f2ee8" style="fill:var(--color2, #4f2ee8)" d="m23.773 25.965-10.238-10.14L3.886 5.98h19.887v19.985z"/>
      <path fill="#4f2ee8" style="fill:var(--color2, #4f2ee8)" d="m7.934 10.03 11.658 11.659H7.934V10.031z"/>
      <path fill="#f6f6f6" style="fill:var(--color1, #f6f6f6)" d="m7.934 10.03 11.658 11.659V10.031H7.934z"/>
      <path  d="M47.662 12.272c0-2.366-1.749-3.703-4.773-3.703h-6.316v14.709h6.666c3.045 0 4.999-1.461 4.999-4.3 0-2.201-1.317-3.333-2.86-3.6v-.041c1.214-.411 2.284-1.255 2.284-3.065zm-8.64 2.387v-4.012h3.929c1.461 0 2.263.72 2.263 2.016s-.658 1.996-2.407 1.996h-3.785zm0 1.83h4.3c1.543 0 2.469.843 2.469 2.345 0 1.378-.638 2.366-2.736 2.366h-4.032v-4.711zm15.498 7.098c-3.292 0-5.287-2.284-5.287-5.555s1.996-5.555 5.287-5.555c3.292 0 5.287 2.284 5.287 5.555s-1.996 5.555-5.287 5.555zm0-1.769c2.057 0 3.127-1.625 3.127-3.785 0-2.181-1.07-3.785-3.127-3.785s-3.127 1.605-3.127 3.785c0 2.16 1.07 3.785 3.127 3.785zm11.511 1.769c-3.292 0-5.287-2.284-5.287-5.555s1.996-5.555 5.287-5.555c3.292 0 5.287 2.284 5.287 5.555s-1.996 5.555-5.287 5.555zm0-1.769c2.057 0 3.127-1.625 3.127-3.785 0-2.181-1.07-3.785-3.127-3.785s-3.127 1.605-3.127 3.785c0 2.16 1.07 3.785 3.127 3.785zm6.78-13.249v14.709h2.16v-3.806l1.461-1.378 3.312 5.184h2.592l-4.423-6.604 3.991-3.909H79.25l-4.279 4.217V8.568h-2.16zm14.732 8.352c-1.522-.35-2.695-.432-2.695-1.502 0-.741.699-1.234 1.996-1.234 1.687 0 2.098.843 2.242 1.666h2.098c-.144-1.831-1.502-3.374-4.361-3.374-2.633 0-4.156 1.378-4.156 3.106 0 2.386 2.263 2.716 3.929 3.106 1.543.37 2.798.473 2.798 1.79 0 .658-.638 1.399-2.14 1.399-2.222 0-2.716-.967-2.818-2.098h-2.098c.103 2.222 1.564 3.806 4.958 3.806 2.551 0 4.279-1.255 4.279-3.271 0-2.51-2.098-2.942-4.032-3.394zm11.096-4.443c-1.769 0-2.86.823-3.415 1.646h-.041V8.569h-2.16v14.709h2.16V16.88c0-1.564 1.132-2.572 2.716-2.572 1.502 0 2.098.905 2.098 2.325v6.645h2.181v-7.262c0-2.407-1.543-3.538-3.538-3.538zm10.163 9.34c-1.913 0-3.045-1.461-3.045-3.23h8.064c0-3.744-1.666-6.11-5.061-6.11-3.168 0-5.164 2.14-5.164 5.555 0 3.292 1.996 5.555 5.267 5.555 2.695 0 4.259-1.522 4.793-3.518h-2.16c-.185.638-.905 1.749-2.695 1.749zm-.042-7.633c1.749 0 2.901 1.173 2.901 2.798h-5.904c0-1.625 1.255-2.798 3.004-2.798zm6.584-5.616v14.709h2.181V8.569h-2.181zm9.236 1.769V8.569a7.32 7.32 0 0 0-1.438-.144h-.002c-1.728 0-2.674.782-2.674 3.004v1.337h-1.502v1.769h1.502v8.743h2.181v-8.743h1.934v-1.769h-1.934v-1.152c0-1.193.535-1.337 1.934-1.275z"/>
    </symbol>
    <symbol id="icon-x-close" viewBox="0 0 32 32">
      <path stroke-linejoin="round" stroke-linecap="round" stroke-width="3.429" d="M24.009 8.003 8.003 24.009m0-16.006 16.006 16.006"/>
    </symbol>
    <symbol id="icon-uil_cart" viewBox="0 0 32 32">
      <path  d="M25.35 9.339h-4.003V8.005a5.337 5.337 0 0 0-10.674 0v1.334H6.67c-.737 0-1.334.597-1.334 1.334v14.678a4.003 4.003 0 0 0 4.003 4.003h13.342a4.003 4.003 0 0 0 4.003-4.003V10.675c0-.737-.597-1.334-1.334-1.335zM13.342 8.005l-.001-.065a2.67 2.67 0 0 1 5.338 0l-.001.069v-.003V9.34h-5.336V8.006zM24.016 25.35v.002c0 .737-.597 1.334-1.334 1.334H9.338a1.334 1.334 0 0 1-1.334-1.334V12.008h2.667v1.334a1.335 1.335 0 1 0 2.67 0v-1.334h5.336v1.334a1.335 1.335 0 1 0 2.668 0v-1.334h2.669V25.35z"/>
    </symbol>
    <symbol id="icon-arrow-narrow-right" viewBox="0 0 32 32">
      <path fill="none" stroke="#eac645" style="stroke:var(--color5, #eac645)" stroke-linejoin="round" stroke-linecap="round" stroke-width="3.2" d="M5.336 16.011h21.347m.001 0-8.005-8.005m8.005 8.005-8.005 8.005"/>
    </symbol>
    <symbol id="icon-align-left" viewBox="0 0 32 32">
      <path stroke-linejoin="round" stroke-linecap="round" stroke-width="2.286" d="M22.675 13.339H4.002m24.009-5.336H4.002m24.009 10.67H4.002m18.673 5.336H4.002"/>
    </symbol>
    <symbol id="icon-fi-ss-caret-down" viewBox="0 0 28 32">
<path fill="#fff" style="fill: var(--color1, #fff)" d="M5.902 12h16.512l-7.422 8.39c-0.203 0.237-0.501 0.387-0.834 0.391h-0.001c-0.334-0.004-0.632-0.155-0.833-0.39l-0.001-0.002-7.422-8.39z"></path>
</symbol>
<symbol id="icon-arrowDown" viewBox="0 0 32 32">
<path fill="#4f2ee8" style="fill: var(--color1, #4f2ee8)" d="M15.053 17.867c0.124 0.125 0.271 0.224 0.434 0.292s0.337 0.103 0.513 0.103c0.176 0 0.35-0.035 0.513-0.103s0.31-0.167 0.434-0.292l6.107-6.12c0.124-0.125 0.271-0.224 0.434-0.292s0.337-0.103 0.513-0.103c0.176 0 0.35 0.035 0.513 0.103s0.31 0.167 0.434 0.292c0.248 0.25 0.388 0.588 0.388 0.94s-0.139 0.69-0.388 0.94l-6.12 6.12c-0.75 0.749-1.767 1.17-2.827 1.17s-2.077-0.421-2.827-1.17l-6.12-6.12c-0.246-0.248-0.385-0.584-0.387-0.933-0.001-0.175 0.033-0.349 0.099-0.512s0.164-0.31 0.288-0.435c0.124-0.125 0.271-0.224 0.434-0.292s0.337-0.103 0.513-0.103c0.176 0 0.35 0.035 0.513 0.103s0.31 0.167 0.434 0.292l6.107 6.12z"></path>
</symbol>
<symbol id="icon-Vector" viewBox="0 0 20 32">
<path fill="#fff" style="fill: var(--color1, #fff)" d="M9.005 30.888c-1.738-1.262-2.991-3.156-3.414-5.351h-5.591v-23.117c2.991 1.443 5.153 4.599 5.388 7.876l0.846 6.493-0.407-0.045c-0.893 0-1.676 0.812-1.676 1.608 0 0.752 0.595 1.383 1.378 1.548l1.018 0.226c1.676-3.051 2.631-6.042 2.631-8.973 0-2.645-0.36-5.291-0.423-7.996 0-1.202 0.486-2.3 1.253-3.156 0.783 0.857 1.253 1.954 1.253 3.156 0 2.705-0.423 5.351-0.423 7.996 0 2.931 0.955 5.922 2.631 8.973l1.018-0.226c0.783-0.165 1.378-0.812 1.378-1.548 0-0.812-0.783-1.608-1.676-1.608l-0.423 0.060 0.846-6.493c0.423-3.277 2.396-6.448 5.388-7.876v23.117h-5.576c-0.423 2.179-1.613 4.148-3.414 5.351-0.423 0.286-0.783 0.631-1.018 1.097-0.219-0.466-0.579-0.812-0.987-1.112zM2.647 17.556c0.235-0.857 0.893-1.608 1.738-2.074l-0.658-5.351c-0.235-1.668-0.955-3.156-2.036-4.374v11.784h0.955v0.015zM5.466 23.929c0-0.812 0.125-1.548 0.298-2.3l-0.783-0.18c-1.143-0.346-2.036-1.203-2.334-2.3h-0.955v4.78h3.774zM9.178 23.929c0-0.977-0.783-1.834-1.801-1.954-0.172 0.631-0.298 1.263-0.298 1.954h2.099zM9.178 25.552h-1.864c0.298 1.263 0.955 2.42 1.864 3.397v-3.397zM11.809 20.547c-0.72-1.262-1.378-2.585-1.801-3.968-0.423 1.383-1.081 2.706-1.801 3.968 0.72 0.165 1.316 0.631 1.801 1.157 0.486-0.526 1.081-0.992 1.801-1.157zM12.952 23.929c0-0.691-0.125-1.323-0.297-1.954-1.018 0.12-1.801 0.977-1.801 1.954h2.099zM12.717 25.552h-1.864v3.397c0.908-0.992 1.566-2.134 1.864-3.397zM18.34 23.929v-4.78h-0.955c-0.298 1.097-1.206 1.954-2.334 2.3l-0.783 0.18c0.172 0.752 0.298 1.488 0.298 2.3h3.774zM18.34 17.556v-11.799c-1.081 1.202-1.864 2.706-2.036 4.374l-0.658 5.351c0.846 0.466 1.504 1.203 1.739 2.074h0.955z"></path>
</symbol>
  </defs>
</svg>
